<?xml version="1.0" encoding="UTF-8" standalone="no"?>
<!-- Generator: visioncortex VTracer 0.6.4 -->

<svg
   version="1.1"
   viewBox="0 0 512 512"
   preserveAspectRatio="xMidYMid meet"
   id="svg62"
   sodipodi:docname="bottomright-appmenu.svg"
   inkscape:version="1.4.3 (0d15f75, 2025-12-25)"
   xml:space="preserve"
   xmlns:inkscape="http://www.inkscape.org/namespaces/inkscape"
   xmlns:sodipodi="http://sodipodi.sourceforge.net/DTD/sodipodi-0.dtd"
   xmlns="http://www.w3.org/2000/svg"
   xmlns:svg="http://www.w3.org/2000/svg"><defs
     id="defs62" /><sodipodi:namedview
     id="namedview62"
     pagecolor="#505050"
     bordercolor="#eeeeee"
     borderopacity="1"
     inkscape:showpageshadow="0"
     inkscape:pageopacity="0"
     inkscape:pagecheckerboard="0"
     inkscape:deskcolor="#505050"
     inkscape:zoom="4.3281251"
     inkscape:cx="459.20577"
     inkscape:cy="471.56678"
     inkscape:window-width="1310"
     inkscape:window-height="689"
     inkscape:window-x="0"
     inkscape:window-y="0"
     inkscape:window-maximized="1"
     inkscape:current-layer="svg62" /><path
     id="path2"
     d="m 479.4824,377.92082 c -5.36464,9.00896 -17.60219,20.10395 -5.8769,21.4421 3.76078,1.63222 4.56945,9.60334 3.57096,12.61515 -11.35851,11.35851 -20.77292,14.40675 -34.92706,21.3025 -21.94481,1.6699 -21.88143,2.38561 -18.45626,11.66092 -22.34597,17.84081 -19.6194,24.08639 -20.4289,30.3028 -11.73549,-9.0855 -34.19557,-8.10856 -48.14961,-8.28088 -14.48383,0.12929 -26.55865,1.74684 -40.79299,4.90109 -16.56836,4.19504 -73.74922,3.91774 -139.31686,3.7462 -20.02405,-0.34446 -62.48106,-2.24404 -158.047982,6.37709 138.954272,1.62385 231.523092,-0.73315 264.108532,9.81091 1.74835,0.56573 11.95102,3.40059 21.7425,-1.10086 14.86771,-7.5468 21.50976,-8.90807 38.04333,-9.22067 3.95692,0 3.95645,-0.002 7.83472,-0.004 15.80753,-0.12907 38.21434,1.21423 52.72348,7.79126 2.60718,1.18184 56.16796,20.49334 68.32545,13.29047 16.75224,-9.9251 22.98663,4.22589 28.99969,6.80698 10.43925,4.48101 12.82338,3.82238 6.44672,-6.42705 -13.36682,-21.48497 -3.52842,-38.69324 -0.16352,-49.18212 0.72392,-2.25655 3.77542,3.01307 4.03356,0 0.25815,-3.01307 0.43865,-9.32962 -2.64703,-14.62166 -3.85205,-6.27622 -6.60476,-12.2711 -8.83129,-19.28546 -1.13948,-4.88061 -1.13866,-4.87859 2.6549,-10.336 1.62956,-2.09947 3.2087,-4.13743 4.78986,-6.17639 7.05873,-15.9245 8.53495,-33.93851 5.12861,-51.00249 -2.82148,-10.18877 -4.05165,-19.12904 -3.11183,-29.66874 l 2.01678,-4.03356 c -18.0924,-58.28952 -6.14322,-136.25378 -12.55304,-218.34192 -14.52849,40.70405 0.77529,226.88613 -17.11582,277.63433 z m 17.15897,-22.99023 c 3.76129,11.28591 8.15869,24.74439 -2.83573,40.3346 -0.38784,-13.39228 -1.80038,-17.62388 -0.26389,-25.05782 1.59313,-7.708 3.09962,-15.27678 3.09962,-15.27678 z m -19.7586,76.63767 c 6.05034,2.01678 6.04971,2.0176 8.17741,5.17588 3.23694,7.87956 4.72293,12.93481 1.52835,21.04226 -0.62117,1.31091 -1.24354,2.6193 -1.88286,3.97054 -1.91594,4.42683 -2.55709,8.41855 -3.28514,13.1721 -0.83293,2.32938 -1.66385,4.65876 -2.52098,7.05873 -6.67958,1.63763 -6.67958,1.63763 -14.11746,0 -6.05035,-4.03356 -6.05035,-4.03356 -10.08391,-10.0839 -0.8894,-13.34504 4.16049,-20.23543 12.5261,-30.2911 1.78687,-1.97644 1.78699,-1.97739 3.60815,-3.99417 1.02452,-1.2141 2.04917,-2.42865 3.10395,-3.67905 1.45813,-1.17377 1.45801,-1.17333 2.94639,-2.37129 z m -32.26849,16.13424 c -1.20402,9.52727 0.18275,14.60624 -7.25514,21.2233 -6.42949,3.90852 -9.19752,6.45282 -16.51239,5.37788 1.35225,-15.78578 17.3843,-26.60118 23.76753,-26.60118 z m 13.4292,40.39337 c 1.77616,0.88351 -6.64803,1.58011 -8.20217,1.72309 -9.43111,0.86767 -3.29156,-4.41276 -19.01774,-4.7216 17.23177,-14.05218 20.47614,-0.35601 27.21991,2.99851 z"
     style="fill:#000000;fill-opacity:1;stroke:none;stroke-width:2.01678"
     sodipodi:nodetypes="ccccccccccscccsssssscccccccccccscccccccccccccccccsscs" /></svg>
