<?xml version="1.0" encoding="UTF-8" standalone="no"?>
<svg
   viewBox="0 0 500 500"
   version="1.1"
   id="svg2"
   sodipodi:docname="bottomright_bar.svg"
   inkscape:version="1.4.3 (0d15f75, 2025-12-25)"
   xmlns:inkscape="http://www.inkscape.org/namespaces/inkscape"
   xmlns:sodipodi="http://sodipodi.sourceforge.net/DTD/sodipodi-0.dtd"
   xmlns="http://www.w3.org/2000/svg"
   xmlns:svg="http://www.w3.org/2000/svg">
  <defs
     id="defs2">
    <inkscape:path-effect
       effect="mirror_symmetry"
       start_point="-156.64256,24.49106"
       end_point="-156.64256,224.8813"
       center_point="-156.64256,124.68618"
       id="path-effect2"
       is_visible="true"
       lpeversion="1.2"
       lpesatellites=""
       mode="free"
       discard_orig_path="false"
       fuse_paths="true"
       oposite_fuse="false"
       split_items="false"
       split_open="false"
       link_styles="false" />
  </defs>
  <sodipodi:namedview
     id="namedview2"
     pagecolor="#505050"
     bordercolor="#eeeeee"
     borderopacity="1"
     inkscape:showpageshadow="0"
     inkscape:pageopacity="0"
     inkscape:pagecheckerboard="0"
     inkscape:deskcolor="#505050"
     inkscape:zoom="0.69579307"
     inkscape:cx="242.1697"
     inkscape:cy="271.63248"
     inkscape:window-width="1310"
     inkscape:window-height="697"
     inkscape:window-x="0"
     inkscape:window-y="0"
     inkscape:window-maximized="1"
     inkscape:current-layer="g2" />
  <g
     transform="matrix(0.89886057,0,0,0.89886057,389.56615,87.370319)"
     id="g2">
    <path
       style="fill:#000000;stroke:#ffffff;stroke-width:1.00016;stroke-dasharray:none;stroke-opacity:0"
       d="m -183.23242,24.478516 c -0.88865,0.0428 -1.80924,0.145075 -2.75977,0.308593 -20.09456,3.454924 -44.28518,30.311335 -56.88672,45.453125 -20.54795,24.690057 -33.67136,52.995236 -55.76562,74.929686 -10.55003,10.47367 -16.87283,19.38035 -32.16602,24.4668 -1.88421,0.62666 0.17458,6.9838 0.0801,7.23828 -11.28549,30.39047 -52.56229,46.44272 -52.46289,47.71484 0.0739,0.94608 18.48549,-5.1213 28.86914,-10.78711 15.25279,-8.32265 42.05395,-33.93281 57.89844,-55.20507 1.13193,-1.51969 5.45276,0.83874 7.24023,-1.52149 4.29436,-5.67038 13.91944,-19.51728 24.95313,-26.41015 12.10567,-7.56605 26.36527,-13.7837 40.17578,-11.19922 11.64392,2.18001 21.74248,10.71281 28.48828,21.03515 4.80833,7.36098 8.79614,17.82613 6.49805,26.90821 -2.62974,10.38669 -19.85601,25.98432 -20.63086,27.54101 -1.67287,3.36084 7.98903,-0.96639 7.39648,2.04102 -3.43255,17.4214 -22.67678,14.49697 -22.30859,16.5039 0.86209,4.69902 26.05185,4.55258 37.87305,-16.60351 4.42142,-7.9129 9.42901,-25.36182 12.4082,-28.60547 6.48474,-7.06039 16.82579,46.86593 17.68945,51.44336 0.86367,-4.57743 11.20471,-58.50375 17.68946,-51.44336 2.97919,3.24365 7.98678,20.69257 12.4082,28.60547 11.8212,21.15609 37.010955,21.30253 37.873045,16.60351 0.36819,-2.00693 -18.874095,0.9175 -22.306645,-16.5039 -0.59255,-3.00741 9.06741,1.31982 7.39454,-2.04102 -0.77485,-1.55669 -18.00112,-17.15432 -20.63086,-27.54101 -2.29809,-9.08208 1.68971,-19.54723 6.49804,-26.90821 6.7458,-10.32234 16.84436,-18.85514 28.488284,-21.03515 13.81051,-2.58448 28.070112,3.63317 40.175782,11.19922 11.03369,6.89287 20.658765,20.73977 24.953125,26.41015 1.78747,2.36023 6.108304,0.002 7.240234,1.52149 15.84449,21.27226 42.645647,46.88242 57.898437,55.20507 10.38365,5.66581 28.795251,11.73319 28.869141,10.78711 0.0994,-1.27212 -41.1774,-17.32437 -52.462891,-47.71484 -0.0945,-0.25448 1.964289,-6.61162 0.08008,-7.23828 C 2.2322006,164.55027 -4.090595,155.64359 -14.640625,145.16992 -36.734885,123.23547 -49.8583,94.930291 -70.40625,70.240234 c -12.60154,-15.14179 -36.79216,-41.998201 -56.88672,-45.453125 -7.60423,-1.308147 -13.27436,1.365208 -16.26367,6.125 -3.52988,5.620525 -0.89547,13.609616 -0.38867,10.91211 2.45478,-13.065865 14.80703,-11.878001 10.92578,-8.888672 -5.23734,4.033785 -0.99441,15.946621 -0.30664,12.18164 4.43915,-24.300925 27.86966,1.496767 24.0039,2.695313 -13.62241,4.222134 -15.16162,4.076175 -19.88085,9.75 -9.88041,11.881515 -12.55829,24.476531 -12.50782,37.386719 0.10621,27.169531 -12.96585,25.445321 -12.33984,27.148441 0.43173,1.17453 10.12523,1.08924 16.87109,-8.20703 3.44626,-4.7492 6.55045,-17.315842 9.33008,-19.761724 2.82772,-2.488309 12.62599,0.384613 18.61914,-4.101562 5.99315,-4.486174 5.74502,-10.020485 4.68359,-13.78711 -1.06143,-3.766625 -6.44928,-7.979859 -11.79882,-6.935547 -6.92775,1.352403 -7.02646,10.520895 -4.87696,8.185547 9.59277,-10.422154 16.52654,8.154121 2.07032,7.716797 -3.7256,-0.112705 -7.05692,-4.581296 -7.52149,-8.277344 -0.56003,-4.459014 2.34937,-9.806716 6.31836,-11.916015 5.82232,-3.097128 14.84175,-2.434689 20.705079,0.576172 11.9996,6.164557 37.591224,32.789515 42.214844,43.214846 1.01838,2.29623 -14.241367,-4.28216 -21.498047,-5.8711 -12.38722,-2.71234 -26.338446,2.97741 -34.964846,10.86133 -16.78926,15.34419 -28.38668,32.21149 -42.74414,48.33203 -14.35746,-16.12054 -25.95488,-32.98784 -42.74414,-48.33203 -8.6264,-7.88392 -22.57762,-13.57367 -34.96484,-10.86133 -7.25668,1.58894 -22.51643,8.16733 -21.49805,5.8711 4.62362,-10.425331 30.21524,-37.050289 42.21484,-43.214846 5.86333,-3.010861 14.88276,-3.6733 20.70508,-0.576172 3.96899,2.109299 6.87839,7.457001 6.31836,11.916015 -0.46457,3.696048 -3.79588,8.164639 -7.52148,8.277344 -14.45622,0.437324 -7.52246,-18.138951 2.07031,-7.716797 2.1495,2.335348 2.0508,-6.833145 -4.87695,-8.185547 -5.34954,-1.044312 -10.73739,3.168922 -11.79883,6.935547 -1.06143,3.766625 -1.30956,9.300936 4.68359,13.78711 5.99315,4.486175 15.79142,1.613253 18.61914,4.101562 2.77963,2.445882 5.88382,15.012534 9.33008,19.761724 6.74586,9.29626 16.43937,9.38156 16.8711,8.20703 0.626,-1.70312 -12.44606,0.0211 -12.33985,-27.148441 0.0505,-12.910188 -2.6274,-25.505204 -12.50781,-37.386719 -4.71923,-5.673825 -6.25845,-5.527866 -19.88086,-9.75 -3.86576,-1.198546 19.56476,-26.996239 24.00391,-2.695313 0.68777,3.764982 4.9307,-8.147855 -0.30664,-12.18164 -3.88126,-2.989329 8.471,-4.177193 10.92578,8.888672 0.5068,2.697506 3.1412,-5.291585 -0.38868,-10.91211 -2.61564,-4.164818 -7.28335,-6.733158 -13.5039,-6.433593 z"
       id="path1"
       inkscape:path-effect="#path-effect2"
       inkscape:original-d="m -156.58473,220.03784 c 0,0 -10.97502,-59.12356 -17.74636,-51.75114 -2.97919,3.24365 -7.9879,20.69354 -12.40932,28.60644 -11.8212,21.15609 -37.01025,21.30287 -37.87234,16.60385 -0.36819,-2.00693 18.87455,0.91682 22.3071,-16.50458 0.59255,-3.00741 -9.0685,1.31942 -7.39563,-2.04142 0.77485,-1.55669 18.00081,-17.15512 20.63055,-27.54181 2.29809,-9.08208 -1.68999,-19.54585 -6.49832,-26.90683 -6.7458,-10.32234 -16.84399,-18.85641 -28.48791,-21.03642 -13.81051,-2.58448 -28.07073,3.63452 -40.1764,11.20057 -11.03369,6.89287 -20.65692,20.73996 -24.95128,26.41034 -1.78747,2.36023 -6.10994,6.9e-4 -7.24187,1.52038 -15.84449,21.27226 -42.64441,46.88304 -57.8972,55.20569 -10.38365,5.66581 -28.79587,11.73254 -28.86976,10.78646 -0.0994,-1.27212 41.1783,-17.32297 52.46379,-47.71344 0.0945,-0.25448 -1.96521,-6.61284 -0.081,-7.2395 15.29319,-5.08645 21.61598,-13.9928 32.16601,-24.46647 22.09426,-21.93445 35.21873,-50.24063 55.76668,-74.930687 12.60154,-15.14179 36.79077,-41.9979 56.88533,-45.452824 7.60423,-1.308147 13.27513,1.36531 16.26444,6.125102 3.52988,5.620525 0.89614,13.610849 0.38934,10.913343 -2.45478,-13.065865 -14.80848,-11.878046 -10.92723,-8.888717 5.23734,4.033785 0.99426,15.945987 0.30649,12.181006 -4.43915,-24.300926 -27.8685,1.497653 -24.00274,2.696199 13.62241,4.222134 15.16107,4.075056 19.8803,9.748881 9.88041,11.881515 12.55919,24.477376 12.50872,37.387564 -0.10621,27.169533 12.9642,25.444193 12.33819,27.147313 -0.43173,1.17453 -10.12358,1.09019 -16.86944,-8.20608 -3.44626,-4.74919 -6.55053,-17.316302 -9.33016,-19.762184 -2.82772,-2.488309 -12.62677,0.385028 -18.61992,-4.101147 -5.99315,-4.486174 -5.74528,-10.021323 -4.68385,-13.787948 1.06144,-3.766625 6.44917,-7.979369 11.79871,-6.935057 6.92775,1.352402 7.02642,10.520109 4.87692,8.184761 -9.59277,-10.422154 -16.5262,8.155148 -2.06998,7.717824 3.7256,-0.112705 7.05692,-4.582051 7.52149,-8.278099 0.56003,-4.459015 -2.34971,-9.806864 -6.3187,-11.916163 -5.82232,-3.097128 -14.84076,-2.433862 -20.70409,0.576999 -11.9996,6.164557 -37.59207,32.790206 -42.21569,43.215534 -1.01838,2.29623 14.24149,-4.28358 21.49817,-5.87252 12.38722,-2.71234 26.33861,2.97724 34.96501,10.86116 16.83545,15.3864 28.45043,32.305 42.86268,48.46575 z"
       transform="matrix(-1.174177,1.174177,-1.174177,-1.174177,-84.830621,619.22039)"
       sodipodi:nodetypes="csssssccccsssssscscssssccsssczzssscccssscc" />
  </g>
</svg>
