<?xml version="1.0" encoding="utf-8"?>
<svg version="1.0" xmlns="http://www.w3.org/2000/svg" width="512.000000" height="512.000000" viewBox="0 0 512.000000 512.000000" preserveAspectRatio="xMidYMid meet">
  <g transform="matrix(0.323058, 0, 0, -0.323058, -778.184631, 1278.173218)" fill="#007F7F" stroke="none" style="">
    <path d="M 2561 3940 C 2560 3937 2555 3766 2550 3560 C 2540 3127 2521 3010 2460 3010 C 2449 3010 2440 3006 2440 3000 C 2440 2995 2444 2990 2448 2990 C 2463 2990 2509 2895 2526 2831 C 2541 2770 2538 2690 2520 2690 C 2510 2690 2488.07 2709.3 2477.88 2722.85 C 2461.85 2744.18 2447.62 2765.55 2445 2796 C 2441.72 2834.15 2428.9 2823.88 2420 2789 C 2410.9 2753.3 2422.38 2705.79 2444.1 2675.1 C 2488.52 2612.3 2505.09 2627.24 2510 2591 C 2513.4 2565.95 2478.72 2552.13 2451.04 2617.91 C 2448.84 2623.13 2440 2637 2440 2605 C 2440 2580 2456.4 2534.99 2500 2514 C 2533.77 2497.74 2549.32 2393.16 2491 2490 C 2472.31 2521.04 2456.18 2478.89 2485.89 2429.79 C 2509.97 2390.01 2574 2365 2625 2389 C 2660 2405 2689 2410 2755 2410 C 2805 2410 2872 2430 2915 2430 C 2956 2430 2988.83 2423.45 3014 2401 C 3035.38 2381.93 3069.56 2416.82 3110 2422 C 3177.19 2430.6 3201 2430 3313 2431 C 3424 2431 3524 2435 3535 2440 C 3547 2445 3453 2449 3304 2449 C 3004 2450 2910 2473 2910 2547 C 2910 2576 2908 2576 2851 2546 C 2767 2502 2652 2483 2635 2510 C 2631 2516 2625 2518 2620 2515 C 2607 2507 2598 2528 2605 2549 C 2608 2560 2624 2571 2640 2575 C 2674 2583 2679 2607 2653 2632 C 2600 2682 2587 2719 2595 2791 C 2599 2828 2594.3 2829.95 2591 2854 C 2574.96 2970.97 2580 2971 2579 3208 C 2577 3528 2567 3952 2561 3940 Z M 2545.92 2987.8 C 2545.92 2942.8 2531.07 2916.52 2521.65 2925.53 C 2471.98 2972.98 2539.18 3073.26 2549.06 3097.73 C 2549.81 3099.58 2545.92 3021.8 2545.92 2987.8 Z M 2903 2485 C 2945 2448 2931 2442 2827 2456 C 2781 2463 2781 2463 2823 2485 C 2876 2513 2870 2513 2903 2485 Z" style="fill: rgb(255, 255, 255);"/>
  </g>
</svg>