<?xml version="1.0" encoding="utf-8"?>
<svg version="1.0" xmlns="http://www.w3.org/2000/svg" width="512.000000" height="512.000000" viewBox="0 0 512.000000 512.000000" preserveAspectRatio="xMidYMid meet">
  <g transform="matrix(0.110525, 0, 0, -0.110525, -32.779472, 716.977478)" fill="#007F7F" stroke="none" style="">
    <path d="M 4832 3853 C 4831 3802 4810.7 3574.68 4810.52 3568.56 C 4807.12 3456.5 4796 3459 4781 3425 C 4762 3382 4762 3382 4786 3333 C 4826 3252 4820 3178 4769 3110 C 4668 2976 4667 2841 4766 2668 C 4817 2578 4817 2577 4787 2536 C 4754 2493 4738 2439 4741 2382 C 4743 2337 4741 2331 4705 2297 C 4668 2262 4640 2263 4640 2299 C 4640 2305 4631 2314 4621 2320 C 4580 2341 4510 2325 4510 2295 C 4510 2285 4520 2280 4540 2280 C 4635 2280 4553 2144 4420 2081 C 4340 2043 4328 2042 4336 2075 C 4344 2106 4341 2106 4273 2074 C 4238 2057 4186 2044 4133 2038 C 4018 2024 4033.46 2079.53 4198 2134 C 4233.13 2145.63 4223 2159 4183 2154 C 4111 2146 4068 2127 4068 2127 C 4068 2127 3903 2048 3799 2071 C 3685 2096 3503 2103 3358 2086 C 3283 2078 3281 2078 3255 2104 C 3185 2174 3055 2183 2994 2122 C 2981 2110 2975 2109 2972 2118 C 2965 2140 2940 2131 2909 2096 C 2809 1981 2472 1930 2354 2011 C 2309 2042 2309 2042 2267 2025 C 2160 1981 2154 1981 1275 1979 C 813 1978 408 1974 375 1970 C 315 1963 315 1963 388 1961 C 428 1961 725.132 1945.89 893.814 1942.36 C 1049.51 1939.1 974.962 1939.08 1361 1940 C 2254 1942.14 2262 1940 2310 1919 C 2354 1900 2361 1899 2374 1913 C 2391 1930 2399 1929 2505 1897 C 2629 1860 2961 1895 3000 1949 C 3012 1966 3240.88 2039.06 3287 2030 C 3344.26 2018.75 3459.51 1877.92 3609 1880 C 3672.99 1880.89 3816.75 1923.75 3860 1949 C 3890.05 1966.55 3923 1992 3958 1985 C 4006 1977 4025.46 1959.35 4060 1949 C 4102.44 1936.28 4144.95 1921.69 4189 1917 C 4242.06 1911.36 4260 1904.12 4349.91 1904.75 C 4488 1905.72 4540.84 1919.82 4630 1950 C 4697.46 1972.84 4785 2049 4760 2050 C 4752 2050 4723 2043 4696 2035 C 4603 2007 4604 2024 4698 2063 C 4795 2102 4890 2192 4890 2244 C 4890 2262 4889 2262 4873 2247 C 4850 2227 4726 2160 4711 2160 C 4688 2160 4702 2177 4770 2230 C 4809 2259 4854 2319 4870 2342 C 4908 2396 4925 2476 4893 2447 C 4851 2410 4845 2520 4886 2570 C 4901 2587 4911 2602 4909 2603 C 4907 2605 4893 2611 4878 2618 C 4833 2637 4835 2965 4880 3017 C 4916 3057 4916 3060 4889 3091 C 4868 3115 4868 3115 4889 3129 C 4915 3146 4916 3165 4891 3197 C 4858 3238 4850 3311 4841 3635 C 4837 3806 4832 3903 4832 3853 Z M 4769 2967 C 4728.35 2914.73 4710.81 2923.25 4717.81 2958.25 C 4726.81 2999.25 4757.75 3062.44 4780.75 3089.44 C 4814.24 3127.71 4842.13 3061.03 4769 2967 Z M 4817.68 2770.99 C 4812.98 2698.08 4807.49 2656.4 4774.21 2710.64 C 4714.11 2808.58 4688.07 2863.69 4784 2938 C 4812.56 2960.12 4829.52 2954.77 4817.68 2770.99 Z M 4799 2374 C 4770 2339 4757 2408 4782 2467 C 4793 2494 4793 2494 4802 2441 C 4808 2404 4807 2383 4799 2374 Z M 3172 2127 C 3181.4 2123.9 3198 2105 3213 2095 C 3247 2073 3241 2067 3165 2050 C 3132 2042 3074 2026 3036 2013 C 2948 1984 2870 1973 2870 1990 C 2870 2012 2938 2064 2999 2090 C 3033 2104 3107.75 2148.22 3172 2127 Z M 3730 2039 C 3849 2024 3814.95 2004.11 3791.52 1975.65 C 3787.41 1970.66 3755.24 1945.17 3734.11 1935.06 C 3660.28 1899.73 3584.44 1886.7 3488.58 1934.04 C 3438.78 1958.63 3356 2030 3356 2035 C 3354 2056 3566 2059 3730 2039 Z M 4871.22 3035.61 C 4856.21 3031.78 4851.15 3046.59 4854.97 3061.6 C 4857.72 3072.42 4864 3090.54 4879.55 3075.08 C 4886.95 3067.73 4900.66 3043.13 4871.22 3035.61 Z M 2262.68 1994.72 C 2246.72 1999.97 2282.27 2017.73 2299.74 2014.97 C 2317.96 2012.09 2342.21 2000.98 2330.21 1992.08 C 2323.34 1986.99 2296.51 1983.57 2262.68 1994.72 Z" style="fill: rgb(0, 0, 0);"/>
  </g>
</svg>