<?xml version="1.0" encoding="UTF-8" standalone="no"?>
<!-- Created with Inkscape (http://www.inkscape.org/) -->

<svg
   version="1.1"
   id="svg1"
   width="512"
   height="512"
   viewBox="0 0 512 512"
   xmlns="http://www.w3.org/2000/svg"
   xmlns:svg="http://www.w3.org/2000/svg">
  <defs
     id="defs1" />
  <g
     id="g1">
    <path
       id="rect3"
       style="fill:#ffffff;fill-opacity:1;stroke:none;stroke-width:2.97235;stroke-dasharray:none;stroke-opacity:1"
       d="M 0,0 C 14.734508,23.997222 9.7210558,35.594278 2.760308,45.681539 9.35363,65.685096 7.6931844,92.43935 7.6931844,92.43935 v 42.37308 42.37309 c 0,8.75164 9.5502186,9.17222 9.5502186,0 C 19.704602,143.99788 31.673239,112.22159 51.717949,85.656833 38.091685,83.022782 28.248179,71.094305 28.24809,57.215786 28.248117,41.217381 41.217381,28.248117 57.215786,28.24809 c 13.878519,8.9e-5 25.806996,9.843595 28.441047,23.469859 26.564757,-20.04471 58.341047,-32.013347 91.528687,-34.474546 6.62276,0 6.6156,-9.5502186 0,-9.5502186 H 134.81243 92.43935 c 0,0 -34.695293,0.021044 -44.569249,-7.10524195 C 39.826029,8.3650463 23.642602,15.245887 0,0 Z m 432,432 c -14.73451,-23.99722 -9.72106,-35.59428 -2.76031,-45.68154 -6.59332,-20.00356 -4.93287,-46.75781 -4.93287,-46.75781 v -42.37308 -42.37309 c 0,-8.75164 -9.55022,-9.17222 -9.55022,0 -2.4612,33.18764 -14.42984,64.96393 -34.47455,91.52869 13.62627,2.63405 23.46977,14.56252 23.46986,28.44104 -3e-5,15.99841 -12.96929,28.96767 -28.9677,28.9677 -13.87852,-9e-5 -25.80699,-9.84359 -28.44104,-23.46986 -26.56476,20.04471 -58.34105,32.01335 -91.52869,34.47455 -6.62276,0 -6.6156,9.55022 0,9.55022 h 42.37309 42.37308 c 0,0 34.69529,-0.0211 44.56925,7.10524 C 392.17397,423.63495 408.3574,416.75411 432,432 Z"
       transform="scale(1.1851852)" />
  </g>
</svg>
