<?xml version="1.0" encoding="UTF-8" standalone="no"?>
<!-- Uploaded to: SVG Repo, www.svgrepo.com, Generator: SVG Repo Mixer Tools -->

<svg
   fill="#000000"
   width="800px"
   height="800px"
   viewBox="-1.5 0 19 19"
   class="cf-icon-svg"
   version="1.1"
   id="svg1"
   sodipodi:docname="speaker_icon.svg"
   inkscape:version="1.4.3 (0d15f75, 2025-12-25)"
   xmlns:inkscape="http://www.inkscape.org/namespaces/inkscape"
   xmlns:sodipodi="http://sodipodi.sourceforge.net/DTD/sodipodi-0.dtd"
   xmlns:xlink="http://www.w3.org/1999/xlink"
   xmlns="http://www.w3.org/2000/svg"
   xmlns:svg="http://www.w3.org/2000/svg">
  <defs
     id="defs1">
    <linearGradient
       id="linearGradient1"
       inkscape:collect="always">
      <stop
         style="stop-color:#ffffff;stop-opacity:1;"
         offset="0"
         id="stop1" />
      <stop
         style="stop-color:#ffffff;stop-opacity:0;"
         offset="1"
         id="stop2" />
    </linearGradient>
    <radialGradient
       inkscape:collect="always"
       xlink:href="#linearGradient1"
       id="radialGradient2"
       cx="8.0007048"
       cy="9.584177"
       fx="8.0007048"
       fy="9.584177"
       r="7.6677046"
       gradientTransform="matrix(3.2829035,0,0,2.363986,-18.264837,-13.072683)"
       gradientUnits="userSpaceOnUse" />
  </defs>
  <sodipodi:namedview
     id="namedview1"
     pagecolor="#505050"
     bordercolor="#eeeeee"
     borderopacity="1"
     inkscape:showpageshadow="0"
     inkscape:pageopacity="0"
     inkscape:pagecheckerboard="0"
     inkscape:deskcolor="#505050"
     inkscape:zoom="0.405"
     inkscape:cx="576.54321"
     inkscape:cy="424.69136"
     inkscape:window-width="1310"
     inkscape:window-height="689"
     inkscape:window-x="0"
     inkscape:window-y="0"
     inkscape:window-maximized="1"
     inkscape:current-layer="svg1" />
  <path
     d="M7.098 4.769v9.63c0 .61-.353.756-.784.325L3.42 11.828H1.442A1.112 1.112 0 0 1 .333 10.72V8.448A1.112 1.112 0 0 1 1.442 7.34h1.977l2.895-2.896c.431-.43.784-.285.784.325zm2.076 7.474a.553.553 0 0 0 .392-.163 3.53 3.53 0 0 0 0-4.992.554.554 0 1 0-.784.784 2.422 2.422 0 0 1 0 3.425.554.554 0 0 0 .392.946zm2.184 1.629a6.059 6.059 0 0 0 0-8.575.554.554 0 0 0-.784.783 4.955 4.955 0 0 1 0 7.008.554.554 0 0 0 .784.784zm1.79 1.79a8.59 8.59 0 0 0 0-12.157.554.554 0 0 0-.783.784 7.481 7.481 0 0 1 0 10.59.554.554 0 1 0 .784.784z"
     id="path1"
     style="fill:url(#radialGradient2)" />
</svg>
