<?xml version="1.0" encoding="utf-8"?>
<svg version="1.0" xmlns="http://www.w3.org/2000/svg" width="512.000000" height="512.000000" viewBox="0 0 512.000000 512.000000" preserveAspectRatio="xMidYMid meet">
  <g transform="matrix(0.107297, 0, 0, -0.107297, -18.611225, 317.821686)" fill="#2B2B81" stroke="none" style="">
    <path d="M 1950 2931 C 1931 2927 1899 2915 1880 2905 C 1822 2874 1661 2872 1550 2901 C 1435 2930 1415 2910 1509 2860 C 1545 2841 1545 2841 1503 2840 C 1451 2840 1445 2820 1489 2794 C 1571 2746 1525 2666 1385 2612 C 1236 2555 1255 2557 795 2556 C 339 2555 296 2551 234 2499 C 204 2474 217 2441 257 2438 C 303 2434 312 2392 281 2325 C 263 2285 263 2285 255 2313 C 250 2330 241 2340 229 2340 C 208 2340 207 2335 209 2268 C 211 2229 208 2220 195 2220 C 181 2220 179 2214 184 2193 C 188 2177 204 2093 220 2005 C 236 1917 254 1829 260 1810 C 274 1761 273 1753 250 1747 C 226 1741 223 1698 245 1660 C 253 1646 259 1620 260 1601 C 260 1582 268 1558 278 1547 C 293 1530 296 1494 300 1210 C 305 920 309 865 326 882 C 329 886 335 1007 340 1152 C 348 1410 353 1460 371 1460 C 386 1460 381 1514 364 1539 C 338 1576 350 1674 391 1757 C 435 1847 437 1935 397 2023 C 352 2120 348 2210 390 2210 C 414 2210 415 2218 394 2241 C 363 2276 400 2311 548 2385 C 743 2481 880 2504 974 2454 C 1013 2433 1013 2433 1047 2456 C 1071 2472 1102 2480 1158 2485 C 1232 2492 1424 2523 1687 2572 C 1811 2595 1847 2617 1790 2635 C 1764 2643 1763 2699 1788 2729 C 1803 2747 1822 2751 1949 2760 C 2029 2765 2138 2779 2192 2791 C 2289 2813 2291 2813 2344 2795 C 2394 2778 2406 2778 2497 2790 C 2581 2801 2615 2801 2713 2788 C 2802 2777 2824.91 2781.45 2830 2786 C 2896.6 2845.5 2907 2832 3934 2841 C 4473 2846 4916 2852 4918 2855 C 4933 2869 4841 2872 4019 2876 C 3175 2881 3121 2883 3058 2901 C 2978 2924 2961 2924 2924 2905 C 2876 2880 2644 2884 2552 2912 C 2474 2935 2478 2935 2342 2896 C 2294 2882 2284 2882 2247 2896 C 2133 2939 2042 2949 1950 2931 Z M 2160 2884 C 2199 2876 2232 2865 2235 2861 C 2240 2851 2108 2822 2030 2815 C 1824 2798 1823 2798 1906 2846 C 2003 2903 2049 2910 2160 2884 Z M 2429 2864 C 2454 2859 2458 2855 2449 2844 C 2437 2829 2397 2827 2365 2839 C 2327 2854 2377 2874 2429 2864 Z M 2825 2830 C 2818 2818 2736 2818 2700 2830 C 2683 2836 2699 2838 2753 2839 C 2803 2840 2829 2836 2825 2830 Z M 1714 2742 C 1713 2736 1712 2706 1712 2676 C 1710 2622 1710 2622 1624 2610 C 1528 2596 1526 2597 1539 2633 C 1568 2708 1719 2802 1714 2742 Z M 695 2510 C 713 2503 712 2502 685 2495 C 669 2492 609 2471 554 2449 C 462 2414 420 2403 420 2414 C 420 2475 615 2543 695 2510 Z M 310 1947 C 310 1815 310 1815 288 1860 C 252 1938 261 2109 301 2084 C 306 2081 310 2019 310 1947 Z M 365 1963 C 385 1888 373 1800 344 1800 C 333 1800 330 1822 330 1917 C 330 2043 341 2057 365 1963 Z" style="fill: rgb(255, 255, 255);"/>
  </g>
</svg>