<?xml version="1.0" encoding="UTF-8" standalone="no"?>
<svg
   version="1.1"
   viewBox="0 0 512 512"
   preserveAspectRatio="xMidYMid meet"
   id="svg29"
   sodipodi:docname="topleft-appmenu.svg"
   xml:space="preserve"
   inkscape:version="1.4.3 (0d15f75, 2025-12-25)"
   xmlns:inkscape="http://www.inkscape.org/namespaces/inkscape"
   xmlns:sodipodi="http://sodipodi.sourceforge.net/DTD/sodipodi-0.dtd"
   xmlns="http://www.w3.org/2000/svg"
   xmlns:svg="http://www.w3.org/2000/svg"><defs
     id="defs1" /><sodipodi:namedview
     id="namedview1"
     pagecolor="#505050"
     bordercolor="#eeeeee"
     borderopacity="1"
     inkscape:showpageshadow="0"
     inkscape:pageopacity="0"
     inkscape:pagecheckerboard="0"
     inkscape:deskcolor="#505050"
     showgrid="false"
     inkscape:zoom="0.66015048"
     inkscape:cx="252.21522"
     inkscape:cy="245.39859"
     inkscape:window-width="1310"
     inkscape:window-height="689"
     inkscape:window-x="0"
     inkscape:window-y="0"
     inkscape:window-maximized="1"
     inkscape:current-layer="svg29" /><path
     id="path2"
     d="M 3.3574969,0 C -2.6583768,11.036416 16.030085,21.376328 15.993994,36.020484 15.979955,41.716164 18.068458,46.142116 13.103587,57.458568 0.96470935,68.448107 13.012973,67.94586 10.362511,72.917498 5.3428974,79.108009 1.683679,84.861925 0.04064983,90.97639 -0.50255995,92.998728 4.5669131,93.349083 5.1997988,95.345662 19.65677,129.74148 15.126236,173.79238 15.505885,211.33657 c 0.07296,37.8414 0.384671,258.75068 3.305396,296.29366 6.628151,-62.95228 1.859472,-318.23238 3.160553,-362.67921 1.98164,-3.80158 3.706715,-5.97409 2.686626,-10.97974 -7.863471,-23.07302 2.875982,-25.27247 3.162113,-36.060091 1.705906,-27.339129 -13.422446,-25.439743 9.155452,-42.398162 3.689085,-4.005528 8.861432,-6.977205 11.193008,-11.898047 3.459225,-7.300863 6.167913,-8.631956 4.640728,-24.944827 7.688533,0.04204 24.650521,9.654341 26.465758,10.984756 0.460642,-6.057223 3.213885,-5.697385 9.706831,-5.97037 4.225592,-1.430478 8.167826,-3.360733 12.3835,-5.577155 5.50141,-2.892416 52.59791,-0.941992 102.64457,-2.173524 45.16486,-1.111402 88.9666,0.772634 105.05118,-3.552819 C 228.88957,9.4629772 140.21384,14.839267 112.74832,8.1187464 116.28638,-10.618301 103.9247,9.7715379 97.258911,12.168463 80.865052,18.063467 73.500065,16.542331 64.081884,12.370626 58.676976,9.9765661 42.329785,4.7440427 31.806771,6.0572292 29.975113,6.2860576 28.723772,8.1342078 27.018897,8.8433697 18.420727,11.484596 10.64318,9.0597764 3.3574969,0 Z M 39.020019,43.162477 c -1.035912,-0.518471 2.378538,-8.022571 -10.207796,-21.955491 -4.552677,-7.316256 12.52595,-5.945334 15.271188,4.446162 1.442072,5.458651 0.638609,11.529733 -5.063392,17.509329 z M 27.681675,30.793374 c 1.740104,1.480996 6.580717,16.341121 5.152908,18.354049 -2.359147,3.325934 -8.509463,9.049629 -13.398977,13.599468 1.54923,-10.889965 6.750546,-7.699019 8.246069,-31.953517 z M 16.34333,78.20827 c 1.86155,-0.823577 4.317848,1.76672 4.832196,3.7365 1.68426,6.456671 1.854335,13.317401 1.353386,19.97095 -0.10926,1.45337 -1.708997,3.55303 -3.092275,3.09228 -1.900719,-0.63392 -2.065641,-3.43346 -3.092276,-5.1538 -2.488251,-4.17148 -5.039379,-8.311006 -4.638414,-13.721458 0.226767,-3.052077 1.838873,-6.686531 4.638414,-7.923442 z"
     style="fill:#000000;fill-opacity:1;stroke:none;stroke-width:1.03076"
     sodipodi:nodetypes="csccccccccccccccssccsscccccsccscccccccccc" /></svg>
