<?xml version="1.0" encoding="UTF-8" standalone="no"?>
<svg
   version="1.0"
   width="512.000000"
   height="512.000000"
   viewBox="0 0 512.000000 512.000000"
   preserveAspectRatio="xMidYMid meet"
   id="svg1"
   sodipodi:docname="topright.svg"
   inkscape:version="1.4.3 (0d15f75, 2025-12-25)"
   xmlns:inkscape="http://www.inkscape.org/namespaces/inkscape"
   xmlns:sodipodi="http://sodipodi.sourceforge.net/DTD/sodipodi-0.dtd"
   xmlns="http://www.w3.org/2000/svg"
   xmlns:svg="http://www.w3.org/2000/svg">
  <defs
     id="defs1" />
  <sodipodi:namedview
     id="namedview1"
     pagecolor="#505050"
     bordercolor="#eeeeee"
     borderopacity="1"
     inkscape:showpageshadow="0"
     inkscape:pageopacity="0"
     inkscape:pagecheckerboard="0"
     inkscape:deskcolor="#505050"
     inkscape:zoom="1.265625"
     inkscape:cx="261.92593"
     inkscape:cy="171.85185"
     inkscape:window-width="1310"
     inkscape:window-height="692"
     inkscape:window-x="0"
     inkscape:window-y="0"
     inkscape:window-maximized="1"
     inkscape:current-layer="svg1" />
  <g
     transform="matrix(-0.32806957,0,0,0.32806957,1304.8982,-780.67583)"
     fill="#007f7f"
     stroke="none"
     id="g1">
    <path
       d="m 2561,3940 c -1,-3 -6,-174 -11,-380 -10,-433 -29,-550 -90,-550 -11,0 -20,-4 -20,-10 0,-5 4,-10 8,-10 15,0 61,-95 78,-159 15,-61 12,-141 -6,-141 -10,0 -31.93,19.3 -42.12,32.85 -16.03,21.33 -30.26,42.7 -32.88,73.15 -3.28,38.15 -16.1,27.88 -25,-7 -9.1,-35.7 2.38,-83.21 24.1,-113.9 44.42,-62.8 60.99,-47.86 65.9,-84.1 3.4,-25.05 -31.28,-38.87 -58.96,26.91 -2.2,5.22 -11.04,19.09 -11.04,-12.91 0,-25 16.4,-70.01 60,-91 33.77,-16.26 49.32,-120.84 -9,-24 -18.69,31.04 -34.82,-11.11 -5.11,-60.21 24.08,-39.78 88.11,-64.79 139.11,-40.79 35,16 64,21 130,21 50,0 117,20 160,20 41,0 73.83,-6.55 99,-29 21.38,-19.07 55.56,15.82 96,21 67.19,8.6 91,8 203,9 111,0 211,4 222,9 12,5 -82,9 -231,9 -300,1 -394,24 -394,98 0,29 -2,29 -59,-1 -84,-44 -199,-63 -216,-36 -4,6 -10,8 -15,5 -13,-8 -22,13 -15,34 3,11 19,22 35,26 34,8 39,32 13,57 -53,50 -66,87 -58,159 4,37 -0.7,38.95 -4,63 -16.04,116.97 -11,117 -12,354 -2,320 -12,744 -18,732 z m -15.08,-952.2 c 0,-45 -14.85,-71.28 -24.27,-62.27 -49.67,47.45 17.53,147.73 27.41,172.2 0.75,1.85 -3.14,-75.93 -3.14,-109.93 z M 2903,2485 c 42,-37 28,-43 -76,-29 -46,7 -46,7 -4,29 53,28 47,28 80,0 z"
       style="fill:#000000"
       id="path1" />
  </g>
</svg>
